DataType=double
version=3
OpenSimVersion=4.5-2024-01-10-34fd6af
endheader
time	ground_force_1_vx	ground_force_1_vy	ground_force_1_vz	ground_force_1_px	ground_force_1_py	ground_force_1_pz	ground_moment_1_mx	ground_moment_1_my	ground_moment_1_mz	ground_force_2_vx	ground_force_2_vy	ground_force_2_vz	ground_force_2_px	ground_force_2_py	ground_force_2_pz	ground_moment_2_mx	ground_moment_2_my	ground_moment_2_mz
30	-85.24234116	768.7166059	83.20732101	1.200818764683248	0	0.3263785720253376	0	2.885491237030742	0	22.38107693	152.6207267	-19.46864121	0.8594858650347557	0	0.5689508957895446	0	1.764484499989724	0
30.01	-84.15241499	790.846347	86.48767866	1.194218392038131	0	0.3258175719129355	0	2.9505803087192	0	14.82794335	107.0174437	-14.95493989	0.8539258424275594	0	0.5716236251339326	0	1.634932529547173	0
30.02	-80.61166196000001	805.5288268	88.56115543999999	1.187204854566723	0	0.325375967620484	0	2.97565182705214	0	8.316986288000001	69.82970262000001	-11.09981108	0.8445200359746972	0	0.5764750367307244	0	1.554462514548221	0
30.03	-75.16805133	813.1323277	89.51513442	1.179888139678269	0	0.3250474214025723	0	2.950934857093948	0	3.079707382	41.34082773	-7.948985716	0.826800619909172	0	0.5861374779069704	0	1.549109147476444	0
30.04	-68.38543292999999	814.1018229	89.59186156	1.172421301400346	0	0.3248298165961006	0	2.895907307005956	0	-0.810088004	21.03195271	-5.529075208	0.7856981234468956	0	0.6088660289435144	0	1.711891969306014	0
30.05	-60.92327408	809.063348	88.98988218	1.164881566612961	0	0.3247290134860079	0	2.815942862964469	0	5.03e-16	-2.73e-14	5.37e-15	0.8201576356468924	0	0.7216919328298302	0	-3.5e-16	0
30.06	-53.27180492	798.9465388	87.88423056000001	1.157349382320398	0	0.3247569059714934	0	2.714843196519084	0	1.04e-19	-5.98e-18	1.18e-18	0.8201576356468924	0	0.7216919328298302	0	-7.28e-20	0
30.07	-45.80841957	785.0370362	86.40502374	1.149824038376656	0	0.3249322491444923	0	2.59738420260928	0	2.32e-23	-1.31e-21	2.59e-22	0.8201576356468924	0	0.7216919328298302	0	-1.6e-23	0
30.08	-38.71498395	768.8836739	84.56575187999999	1.142310566115517	0	0.3252783607462243	0	2.457145893343053	0	5.05e-27	-2.88e-25	5.65e-26	0.8201576356468924	0	0.7216919328298302	0	-3.56e-27	0
30.09	-32.09976985	752.0820141	82.38396112	1.13477422980662	0	0.3258129498001983	0	2.297776921892144	0	1.19e-30	-6.33e-29	1.24e-29	0.8201576356468924	0	0.7216919328298302	0	-8.069999999999999e-31	0
30.1	-26.04646075	736.0261573	79.88670354	1.127221046835083	0	0.3265360653873499	0	2.133660087650455	0	2.48e-34	-1.38e-32	2.73e-33	0.8201576356468924	0	0.7216919328298302	0	-1.73e-34	0
30.11	-20.64764815	721.7524786	77.15685486	1.119675359667045	0	0.3274267912351519	0	1.990773119428358	0	5.58e-38	-3.02e-36	5.94e-37	0.8201576356468924	0	0.7216919328298302	0	-3.97e-38	0
30.12	-15.9957055	709.9760344	74.36423791999999	1.112178480972523	0	0.3284337929796246	0	1.897197417742866	0	1.34e-41	-6.63e-40	1.32e-40	0.8201576356468924	0	0.7216919328298302	0	-8.250000000000001e-42	0
30.13	-12.1063462	701.0978147	71.70425877	1.104791258567665	0	0.3294889705321669	0	1.872633088876622	0	2.65e-45	-1.45e-43	2.85e-44	0.8201576356468924	0	0.7216919328298302	0	-1.75e-45	0
30.14	-8.941613637	695.2692193	69.36227378	1.097512274635276	0	0.330523382838955	0	1.923373147508158	0	5.61e-49	-3.18e-47	6.31e-48	0.8201576356468924	0	0.7216919328298302	0	-3.85e-49	0
30.15	-6.393230446	692.4620414	67.47679015999999	1.090381691072163	0	0.3314716312938596	0	2.048599856575841	0	1.38e-52	-6.96e-51	1.36e-51	0.8201576356468924	0	0.7216919328298302	0	-8.869999999999999e-53	0
30.16	-4.332464646	692.4799354	66.10248296	1.083377928060625	0	0.3322885560200322	0	2.235258801574433	0	2.85e-56	-1.52e-54	3e-55	0.8201576356468924	0	0.7216919328298302	0	-1.94e-56	0
30.17	-2.593487684	695.0548295999999	65.23840447000001	1.076518675736668	0	0.332941782147266	0	2.462398405470303	0	6.03e-60	-3.34e-58	6.48e-59	0.8201576356468924	0	0.7216919328298302	0	-4.2e-60	0
30.18	-1.023219673	699.8038273	64.85051486	1.069790679298368	0	0.3334226765571248	0	2.713345504933887	0	1.34e-63	-7.31e-62	1.44e-62	0.8201576356468924	0	0.7216919328298302	0	-9.12e-64	0
30.19	0.524878213	706.2613767	64.85229364999999	1.06318658741276	0	0.33373435733183	0	2.961797834349087	0	3.01e-67	-1.6e-65	3.15e-66	0.8201576356468924	0	0.7216919328298302	0	-2.07e-67	0
30.2	2.161400781	713.8475912	65.17971251	1.056691377840804	0	0.3338914262819438	0	3.196314802006604	0	6.28e-71	-3.48e-69	6.869999999999999e-70	0.8201576356468924	0	0.7216919328298302	0	-4.36e-71	0
30.21	3.96380795	721.9161433	65.73797688000001	1.050284017264221	0	0.3339192263870825	0	3.408379654371252	0	1.46e-74	-7.75e-73	1.51e-73	0.8201576356468924	0	0.7216919328298302	0	-1e-74	0
30.22	5.982182078	729.8214	66.42694757	1.043974663700591	0	0.333842026039206	0	3.590815389070471	0	3.1e-78	-1.67e-76	3.32e-77	0.8201576356468924	0	0.7216919328298302	0	-2.06e-78	0
30.23	8.224761513000001	736.9372231999999	67.17239718	1.037737822084845	0	0.3336845364659388	0	3.747025950846185	0	6.55e-82	-3.7e-80	7.21e-81	0.8201576356468924	0	0.7216919328298302	0	-4.74e-82	0
30.24	10.67003727	742.7476679	67.86493363	1.031589163512331	0	0.3334640252979115	0	3.878169996540112	0	-3.77e-80	-1.13e-78	-1.71e-79	0.8201576356468924	0	0.7216919328298302	0	1.71e-80	0
30.25	13.25889667	746.8363720999999	68.46318997	1.025510311087151	0	0.3331938586051658	0	3.993199211014469	0	-1.69e-76	-5.19e-75	-7.89e-76	0.8201576356468924	0	0.7216919328298302	0	7.34e-77	0
30.26	15.91908259	748.9320676999999	68.92750337	1.019517926350204	0	0.3328831542894889	0	4.095762369157253	0	-7.69e-73	-2.37e-71	-3.63e-72	0.8201576356468924	0	0.7216919328298302	0	3.69e-73	0
30.27	18.57725396	748.9609533	69.25373436	1.013588759860664	0	0.3325381238952818	0	4.180334317661982	0	-3.33e-69	-1.08e-67	-1.63e-68	0.8201576356468924	0	0.7216919328298302	0	1.54e-69	0
30.28	21.17792431	746.9804001	69.47084958000001	1.007725899054731	0	0.332167530310361	0	4.249561239763782	0	-1.62e-65	-4.92e-64	-7.54e-65	0.8201576356468924	0	0.7216919328298302	0	7.2e-66	0
30.29	23.69995139	743.2381548	69.58781258	1.001912619505027	0	0.3317736148170203	0	4.29849847186183	0	-7.66e-62	-2.25e-60	-3.46e-61	0.8201576356468924	0	0.7216919328298302	0	3.16e-62	0
30.3	26.15121406	738.0478255	69.63870796	0.9961442783366835	0	0.3313608593534756	0	4.324570095188644	0	-3.11e-58	-1.03e-56	-1.57e-57	0.8201576356468924	0	0.7216919328298302	0	1.38e-58	0
30.31	28.57209037	731.8367928	69.63655550999999	0.9904344924072186	0	0.3309287308020578	0	4.327452562578223	0	-1.57e-54	-4.66e-53	-7.2e-54	0.8201576356468924	0	0.7216919328298302	0	6.980000000000001e-55	0
30.32	31.0244725	725.0279517	69.58173999	0.9847847687726676	0	0.3304799330005526	0	4.304525845389755	0	-6.89e-51	-2.13e-49	-3.27e-50	0.8201576356468924	0	0.7216919328298302	0	3.13e-51	0
30.33	33.5636424	718.0841144	69.51452767000001	0.9792078795021574	0	0.3299971085099801	0	4.260826626572078	0	-2.89e-47	-9.83e-46	-1.5e-46	0.8201576356468924	0	0.7216919328298302	0	1.28e-47	0
30.34	36.24152372	711.4319248	69.44176122	0.9736750821289246	0	0.3294601185396738	0	4.193269656450519	0	-1.4e-43	-4.44e-42	-6.81e-43	0.8201576356468924	0	0.7216919328298302	0	6.31e-44	0
30.35	39.09187922	705.4820042	69.40307668	0.9682230166333098	0	0.3288396492402348	0	4.114353347648033	0	-6.54e-40	-2.04e-38	-3.11e-39	0.8201576356468924	0	0.7216919328298302	0	3.27e-40	0
30.36	42.08804575	700.5839832	69.42889721	0.9628999956084143	0	0.3281017971509809	0	4.040589926721948	0	-2.89e-36	-9.39e-35	-1.42e-35	0.8201576356468924	0	0.7216919328298302	0	1.36e-36	0
30.37	45.18689573	696.9779681	69.53581595999999	0.9577720531908708	0	0.3272094321750004	0	3.98592601476877	0	-1.36e-32	-4.26e-31	-6.44e-32	0.8201576356468924	0	0.7216919328298302	0	6.11e-33	0
30.38	48.25537327	694.7755625999999	69.77373779	0.9529386868008909	0	0.3261242845007982	0	3.970872632919909	0	-5.8e-29	-1.94e-27	-2.96e-28	0.8201576356468924	0	0.7216919328298302	0	2.74e-29	0
30.39	51.18124186	694.0104303000001	70.17908254	0.9484744860423263	0	0.3248175894676665	0	4.003475221051898	0	-2.6e-25	-8.84e-24	-1.33e-24	0.8201576356468924	0	0.7216919328298302	0	1.34e-25	0
30.4	53.84688385	694.6994684	70.81037426	0.9444539117696511	0	0.3232773548214465	0	4.092107585740949	0	-1.17e-21	-4.03e-20	-6.13e-21	0.8201576356468924	0	0.7216919328298302	0	6.12e-22	0
30.41	56.21322935	696.8207009	71.69195033	0.9408786585787391	0	0.3215292592407474	0	4.230421217518998	0	-5.85e-18	-1.85e-16	-2.81e-17	0.8201576356468924	0	0.7216919328298302	0	2.75e-18	0
30.42	58.35010231	700.2450946	72.79845306999999	0.937727044949129	0	0.3196415917019766	0	4.405769431217269	0	4.920265867	13.16953659	3.702262927	0.9262042787809011	0	0.6010102041950643	0	-1.277255694419965	0
30.43	60.39007183	704.6301893	74.0462088	0.934923262110441	0	0.3177172326208173	0	4.601478146893234	0	7.117360861	35.54268726	7.3874093	1.12285220601799	0	0.5783975245105196	0	-0.8860528314090321	0
30.44	62.59341279	709.2640331	75.25723612	0.9323288332857819	0	0.3158711646474787	0	4.787190710738307	0	8.306686470000001	68.90656451	11.64463054	1.181204761227932	0	0.5734958537970694	0	-0.6046528054713205	0
30.45	65.15589427	712.8753592	76.21133958	0.9298075479387982	0	0.3142007243719896	0	4.947164125000911	0	7.382085258	114.3168463	15.93902873	1.207535264083096	0	0.5725353292155824	0	-0.2531370263219985	0
30.46	68.23627417	713.5955703	76.64710583999999	0.927230054249666	0	0.3127728741182541	0	5.06271115270388	0	2.881522933	171.002822	19.31441945	1.222230248928093	0	0.5729698771786083	0	0.2129690932726467	0
30.47	71.73711329	709.153004	76.3151337	0.924551130301504	0	0.3116176672702304	0	5.126786203872561	0	-6.472127078	235.9079649	20.57441313	1.231922133938319	0	0.5741188429396381	0	0.7844122350525513	0
30.48	75.32871412	697.2490199	75.00890339	0.9217577843119299	0	0.3107359047130089	0	5.127972213250175	0	-20.3059731	303.8117909	18.53824739	1.239155974134354	0	0.5756994818502064	0	1.409320539484203	0
30.49	78.49792603	675.9242997	72.54921501	0.9188547711597976	0	0.3101151148111003	0	5.04993244227146	0	-36.68716551	368.1849537	12.69754579	1.244706592982516	0	0.5774991766987423	0	2.00111407334155	0
30.5	80.61728994000001	643.9731764000001	68.89309452000001	0.915879699688716	0	0.3097278859552131	0	4.889226370694121	0	-53.25841142	423.2238705	3.638290178	1.248657391782457	0	0.5793742725125113	0	2.497205509511841	0
30.51	81.12496247999999	601.1760829999999	64.11274106	0.9128312079517602	0	0.3095409341424281	0	4.64108625790336	0	-67.83998178	466.1376862	-7.556433098	1.251217782141437	0	0.5813364722504664	0	2.834695003372341	0
30.52	79.49520131	548.4197558	58.40659194	0.9097221851445999	0	0.3095106616775422	0	4.318305186871272	0	-79.47422927	497.6007693	-19.62618133	1.252459847724682	0	0.5833751755490453	0	3.022975596385136	0
30.53	75.43375206	487.5737144	52.06267615	0.9065372297788725	0	0.3095918259542638	0	3.934079303603087	0	-87.97686293	520.9476613	-31.62708225	1.252592693782741	0	0.5854681460430557	0	3.102489680608373	0
30.54	68.86823568	421.3311409	45.37661171	0.9032527225662911	0	0.3097390954496745	0	3.506172424910158	0	-93.64600045	540.3058273	-42.67877542	1.251611258616174	0	0.5874938016670869	0	3.113192029893256	0
30.55	60.05906037	352.9367685	38.65564373	0.8998095708914362	0	0.3099148131653525	0	3.04868066786304	0	-96.98416612	559.3909341999999	-51.97909551	1.249594409311359	0	0.5893516220490125	0	3.175205491049169	0
